# xmcd CD database file
#
# Track frame offsets:
#	150
#	14442
#	30174
#	47070
#	60316
#	78678
#	96348
#	110710
#	127608
#	140128
#	155969
#	171591
#	189730
#	212846
#	252208
#	269840
#	294055
#	310764
#	329226
#
# Disc length: 4692 seconds
#
# Revision: 0
# Processed by: cddbd v1.5.2PL0 Copyright (c) Steve Scherf et al.
# Submitted via: CDex 1.70beta2
#
DISCID=22125213
DTITLE=その他 - 和ジャズ・ベスト100 (Disc2)
DYEAR=2009
DGENRE=Jazz
TTITLE0=S．J．ボール
TTITLE1=クール・フォア・メイ
TTITLE2=アレキサンダーズ・ラグタイム・バンド
TTITLE3=マスクラット・ランブル
TTITLE4=ザッツ・ア・プレンティ
TTITLE5=聖者の行進
TTITLE6=あなたの想い出
TTITLE7=ハニー・サックル・ローズ
TTITLE8=ふたりでお茶を
TTITLE9=上海リル
TTITLE10=ローズ・ルーム
TTITLE11=明るい表通りで
TTITLE12=ドナ・リー
TTITLE13=パーカーズ・ムード
TTITLE14=A列車で行こう
TTITLE15=ワン・オクロック・ジャンプ
TTITLE16=イン・ザ・ムード
TTITLE17=チュニジアの夜
TTITLE18=ナウズ・ザ・タイム
EXTD=YEAR: 2009
EXTT0=
EXTT1=
EXTT2=
EXTT3=
EXTT4=
EXTT5=
EXTT6=
EXTT7=
EXTT8=
EXTT9=
EXTT10=
EXTT11=
EXTT12=
EXTT13=
EXTT14=
EXTT15=
EXTT16=
EXTT17=
EXTT18=
PLAYORDER=
